<mxfile host="" modified="2022-01-25T03:35:54.706Z" agent="5.0 (Windows NT 10.0; Win64; x64) AppleWebKit/537.36 (KHTML, like Gecko) Code/1.44.2 Chrome/78.0.3904.130 Electron/7.1.11 Safari/537.36" etag="BZZIyQTjkBbHiTlGOQD-" version="13.1.3">
    <diagram id="6hGFLwfOUW9BJ-s0fimq" name="Page-1">
        <mxGraphModel dx="1955" dy="667" grid="1" gridSize="10" guides="1" tooltips="1" connect="1" arrows="1" fold="1" page="1" pageScale="1" pageWidth="827" pageHeight="1169" math="0" shadow="0">
            <root>
                <mxCell id="0"/>
                <mxCell id="1" parent="0"/>
                <mxCell id="3" value="" style="rounded=0;whiteSpace=wrap;html=1;" vertex="1" parent="1">
                    <mxGeometry x="60" y="10" width="240" height="610" as="geometry"/>
                </mxCell>
                <mxCell id="4" value="" style="rounded=0;whiteSpace=wrap;html=1;" vertex="1" parent="1">
                    <mxGeometry x="330.5" y="130" width="501" height="399.5" as="geometry"/>
                </mxCell>
                <mxCell id="5" value="" style="rounded=0;whiteSpace=wrap;html=1;" vertex="1" parent="1">
                    <mxGeometry x="80" y="460" width="200" height="130" as="geometry"/>
                </mxCell>
                <mxCell id="6" value="全局执行上下文" style="text;html=1;strokeColor=none;fillColor=none;align=center;verticalAlign=middle;whiteSpace=wrap;rounded=0;" vertex="1" parent="1">
                    <mxGeometry x="130" y="430" width="90" height="20" as="geometry"/>
                </mxCell>
                <mxCell id="7" value="" style="shape=image;verticalLabelPosition=bottom;labelBackgroundColor=#ffffff;verticalAlign=top;aspect=fixed;imageAspect=0;image=data:image/png,iVBORw0KGgoAAAANSUhEUgAAAR8AAADlCAYAAABqKfOGAAAgAElEQVR4Ae2dfVBUV7run7l1qlIZPnQYjIx3CCht5oq5MSTVEnNigi0UyGASoNVEzZzJPYAMSqbKUDIMpRRaHEbLpOoEdRA4N3USNRMByRgG8YINiUkQqUj0RjxnbBAvGcXIEGlAy7/OrbW/+5PuZtO9u/ulKmHvtdd+17t+a/uw1rv2XutHjz/++H+BfogAESACPibw33xcHhVHBIgAEeAIkPjQg0AEiIBfCJD4+AU7FUoEiACJT0g/A3moaWtEpcEaQkpFI9oO5Vkn0hkRUJnAP6hsjzMXubUdiUtky6OtGRi+JJ9r6eiRjCYkrQzH5MX9uNre5X/XiophMsbJfpjbYSjolM9VO0pB5Z9ykDB0CsUma6PdlWeR25aDxgozNlR2W1/04izvUBtyuOdhEKcyi9HghQ26JfgIqC4+7B9z4pJBDOzdDotfeeUjfk8uoGHhs8OTtgWnjXG43lSCbUfsrqqakHdoF/Tow4EdjqSgAcUHY9FYsgs1+d0orp9F0fk1yFlCojMLgkF7q8rDrjWY/wTrRTT5WXjcb6+H7UZc2JuhiV7P2hQdwif6cXKOhQeGSqQvAQbPVcBpv8ZUgbNDQMLaSqS4j9MuZ8qiGGDoMvV27MhQgsriQ0ADgUBejh5hlj40z9CjaTjVh+lIPXLzA6FW5GOgEVBn2PXMYTyXlSDXfWUpnltZyp/f60P/e7vxEPwwKMwqtmIzNOLsAAMN44jN0yNCsOgoZiTGaqRCxXIW7cNyxb3IakdMlpBLzMNObXx2VAawBgvfKsXi+VIp1rEhD/yVLdgepeKoKQNLpeQklJuSUM6dT6K3uhJlHfzFwrqD2KiTMgJ28SAdqlsKkTxPzjPVU4uXy81yAlIQGw1MX+ty3usRc5u6MFCgR+Ii1vdx2kcSc9NvIuARAXXE59J2XOACyvw/1ui/ziZ4m4DEPGBgbwY3dONEJuswxi/JMSQ+oD2FGw0ZuHPLpr63duPqXpZmI2w22SD5LOSzvS4Kz3gzLrwndBE4YSvFckAxTJvZXzvTVgmd2GbgA8prqypQnmhGVfZxnLPKA3DCs6AfVQbxGi9apjoIAWlBeO62w5AtBKhZDKmsEKerlAKkQ1QkMHrLHTHpxsjYLugXMMVzJ7+N00jBmmVhmL6mFD/bPHQeqgQ0OOxioiILzcPv71i3zaJ9iF0CjLYa7YXHOufszp4xYvH8KdwwKcYmt3bDfHEKEU8Y8IhkfQZ/pXyzOEjbgkwdcL1DFB5mqxPbmm4CumUoZKdF65A8bxK9jYqZsY7j+NeeSYQnJmOtWLwhFjHisbu/o2M9jPuwmbQ2tLVtB+oyVZkxc9dVyhc4BDQoPu7Am8KDUXfyzTbPHTyw7Vkxk/OjFOIz2zLcvX8S49cd5Y1CXJqYPo6bwhBNTOF+z4uSh3WmEXiMbmzEw35PNypey0Rm5mGgoA2NFbMJWVvVhE6CiECAio+fW+DeOB762QW5eCeCI2cAJsYh65YZ4xYghovjKDM5OhbiQ3e9HTZ1o+vaNMK4YZsj+5QWygR8KD5mPLgHRESLEVM+1uLxEOCWCWP3wrE47zAiXbYcX15MopdTNZe+wSgSkLhVcf+ifdCtDMfoFyyA7sOfjl5cnYhActEWefiEVBw1xmGq5wxqmStHruE64rCxLlV2LG0Lfrsqwma4xuI4QNiyNTMPpQxrkBg5jYHz3sR7ZDfoiAg4IqBOwNmRZbu0LtxpMiA6LxfPsZf/wOI2+3HjhVI8apfXVUIX7rzXhQfsLeo97XJG5UwWl2pfHhR5bN/ClmbFhppx4RiL89RjmAWu98j+MrOOZ8VkN+bmyIyy7FpuJkueCQOsZ7JY4BrczJnJlCG54eiFRTaFnl7CT6F3K0Ja0k3CQcrqRIRZBtBl8wa0bT46JwLeEPgRrefjDbbAv4f75CG6Dwdec/KioaESjSV6jLZkzuoNZ/ad2K4FZ5Hp8E3qwOdINfCegA+HXd47SXeqT6BhxwH0QY9dDj8gzUNNiR7oPTAr4WFed98aBZak2328qn6NyGKgESDxCbQWU81fNiN1CoMOhCGlIp374FSNj0pRX4wDvYC+hE2914C+lVetAQPeEA27Ar4JqQJEIDAJUM8nMNuNvCYCAU+AxCfgm5AqQAQCk4Aq4rNkiWLlsMDkQF4TASLgYwKqiI+PfabiiAARCAICJD5B0IhUBSIQiARIfAKx1chnIhAEBEh8gqARqQpEIBAJ+PDbrkDEE4o+R2J3fhaejRzBn985j0FDFnYmAV8fa8U+m6WVODpPrcYnabEyqJvn8WrTiHw+y6M3jZvxSpyFL38hX9ZQxwnsvDJLw3S73wmQ+Pi9CbTmgAXf/QA863rJAN7phctxPC0WcykGg2z9D8VOQlqjRf54T4CGXd6zC/k7X1y+GGGWy/iEeiEh/yx4A4DExxtqQX4P19uwjGMQwOdjEwAm8J2jIZcPOFiVf2cc07DgBz/54oPqhlQRqnzbxV4yHBoamiU4YacIiLtdiOb4Rccc7XohL0TG1lFWrOnMLfS+DGMNRjwwyLunerYr6X68YdoENFVhLK0cenFHCPPH2Fsg7MzBucjnWyy6Cwv6qp/CGW4503ysaylHdMfHgHETWJ4bTcrjeHwo7tGVdgJvlT0PaaOMia9Ql73Z8yVPJT/m6iAW7769Go5fKxViM4I48PEahR928SAxviTnme5vxRaTf7eblL2ho7kkoKGYTxfufGHE4qxlmL8I8uLwzzyNGAxiQNrKmInU0xjfm4FhgQy3MFjeYTyw2iWVrXbYzm11c+FYl7BVznYsvNIl23aD7GJjOdAUj71MJDiB2IQ3ikoF0WDi8iy+NcTjQ8FWUt0w1pd1YrQjFf1C2mLjOvRVx+PbDcNYb9yEG03x+PTpYax/ej+AUsHu8/ihKR7vCWLE7BS0nHBfgIT1d8Ic1WnolIrr6Yxg5zsnuFJeZMHohBt4t/4qPrcplxOen1zGu++I13jR+sQoBqQF4fnhPF6tFwLULIa0NQvHQQJkgzMoT7U17LrUhBv3whH91BoJdmRiAjD0jWIHVLaSoby7BctoGWADBPsfq54OtyxqOB6Vu0v2NzhIuddTJfdOOkbwg1WeepzJlkWGXer/xsF6x+YzQk8IgPlj2Z5gK2nD85hvk97f+BXuzXsSSdLi8FYF25+YKrAhky3a7uA/Xy/ktXA5UuOAoV5ReJi7I9jZMQLExeNNdvrUCjwbacHX5xUzY3eu4mi/BWEJsXjRvoaUEmQENNTzYWS7cO+v27F4pRGR7V2wcNvksCGV9VqfdhsGco1iL0DT33cpmosti2ptR3HR68OYqisoWGU7NeRAgGYqQbcJe9gwz+onkIcfzmIz8/DzhWIlncSSIqPAtqC07U2Jd9Hv4CCgMfEBHrafxejKXEQ9Azx8bBki7l2DWbl9zTOHkbQS1hsGCjuH+rxJijpRsArckIqP8bD9szqxx+iFJ3axJA9t+GzY5aFfdtkFwZEEyC4DIAS7HVyhpCAioDnxYQu3376YjqTEfXgQ5c5OEfmI57Zqtu/5+L6d9uMNI9udw7OeDxuqsViQHEvywnM27NLKQu93RvAflhV49uXleFGKB8Xi3bRYsIDy+6x6V4YxlLYarxhj8b74UuLC5diWFImhDuVwzQsWdEtAENCg+AAPr1zDZJ4ei9luE9w2zAqWLC70QikXTOZnmKZwo7UPk1lRikw+OjzyMfrYTFjZMPRlrEwL+pq+wk+Mj3nmwJFU7AXrMQ1b95o0O+M1U/Us2Fffyr0pvfPtFdgpZLeeyWKB6/PczNknb8v25vKFRbkUOtICAQ1NtWsBB/lABIiArwhoa7bLV7WmcogAEfA7ARIfvzcBOUAEQpMAiU9otjvVmgj4nQCJj9+bgBwgAqFJgMQnNNudak0E/E6AxMfvTUAOEIHQJEDiE5rtTrUmAn4nQOLj9yYgB4hAaBIg8QnNdqdaEwG/EyDx8XsTBIED7KPWthrkWVUlBZV/akNNvlUinRABiYB2xYetRrinHc+J/721D49IbmvtgK22yHw9DNvFNXznaSqOmg7idBX7sNWXP3moKdEDvc1osCq2GxXnBpGQ3YhKg9UF7044gWtDW1sbGitSvLNBd2mKgCY/LAXyEZ+nBy7uxwVpBUP/cOPWDnriGvrf242H/nFBw6Wy3k0OEthKiZXd9n7WF+PAokbsKqlBnqnYRpzssztPSUFlARO4A47LcX4jXdEwAW32fISlU0f8LDzutxtbqCwDF6yWcXX/7oDNmZ8LfeQ0+k5Z93mU9emuPItBJCB9Vr0VHaIipzFw3oHAKQuj44AioE3xCSiEoepsCirXsiVuz6LC5TpCDWjunUZYcq5NTChUuVG9RQIaGnYJu1dI2zcAiXvaRT8x2pqBYba2D7dq4ULr3SqElQwHhJ6HNFT6IgpJ3EJjzIzNDhecZX5nDOWyzmI53KL00hYNeiQ58gU2PrP1hxwNz7jdNPSIkGpj7Yv7/koGnB7c/htQ3XIQydJuG+0wFHQq8rPYUAaWSimT6K2uRBm32wZbJH8LTpfpcLW6Ejc3HMRGIYQ01VOLl8uVi6Sx3ggweM55r0csovv8ALYnJyKWxX5cCpV4B/0OBQIaEh+2MHwXuF1XbMTEq4aYr0fSC33o37udi9VwYmLch3uiOIiCMNSMC8fs13a2HMvABQCSMIj3WTkj+8zns7rInwjlTLdm4KqwMBqXN68JUG73M5O/Dkw7SlpqLAQTCgMTCk5IMnC0qBPbuF0xdKhuWYZ+Qwm2CTcX1h3ExrJiFHbUoFYyGIHksoNYzuwUmIGiYpiMW1CdphApQyxiMA0na/dLlrgD0whGS/SIYgszeyM++SuQgFFc9uZea0/oTEMEgnjYNYgBhWA8HJuywh5p0COC9VQcCI9VxlmeiOXcVqzI+LD9sN0uHWDbA7nw1103rHooHcfRZgaWPp0q3G5GWbZSZIDab246NG1l58g1XEcEouTuEpAQBYfb9Di0xifGLPJwliq/hpvdaltxGZmZswlYu3CKLvmNgIZ6Pn5gMP7/fDOD5aSciGg2plHusDFHDBYsxFoA5wCsrapA+Sp5AMiXaC9At/+mHGJ1YptBOXQDMMh2D1UOWGf2ffSWhwHj+mJksk4pJ0I1OEUCNDPkAMoRxD0f7bfC5JjyH/gc+nv3Dic8bPhUvgrorS6BwSD812QvPG55woZSCOOHUjPdIAzRxr1d47/+MgYRw8eMZiqLrgcMgcATn9FxTEKx+R8XH2LBBM9+uI0Gl+RieYa8QaEjCw+/vwPM53dRdXR9pjSxnPhn5JyPZGzH4vmDmPNXCYqKsVE3id5Gm16L5EoqjhrjpDPPDswYtwAJK6zfa3ZkI2V1IsIsA+iimI0jPCGbFnjDrlu7Yb7YhKSsdsRksXYbxEBDH2LzPNy94tJ2XBjdh+V5pXhupbz3ujjbJT0Rl7ZjILEdiXnt3F7rLF3KIwatpczirJhiNouVg8N4TvJX8Fn1d4KGMT4BLF1VCJP0j/wmThoq5UDykTPoTSvkgskmbreNSfQ29WPK6CE7rr7sDeZctGWno9LQ4GK6PQVrloVh+loXPBx0SVTpIDgJ0O4VwdmuPqoVe8N5F/RjzveCT6loxK7k0VnGa/JQ05aO8YMbXIicj6pMxahGIPCGXapVnQzNnkA3Kl47hcElOY6/t8qvwa5koO/gbGeq2BAvDPqcmYd4s68TWfAVARIfX5EO2nIaUHywD7B7g5l/A3qwRY3eiixy9GFp8DxINOwKnrakmhCBgCJAPZ+Aai5ylggEDwESn+BpS6oJEQgoApoSnyVLpC85AwoiOUsEiIDnBDQlPp67T3cQASIQqARIfAK15chvIhDgBEh8ArwByX0iEKgESHwCteUCzG/2pnPbIXpJUHPNxlYM+FMlPFzsRJVqkPiognG2RvbjDdMw9oj/1e2frUEn97PFxA7CZBL+a9nCLbXhJLN6yeKbzk7Wen7TuBmfvJ2F3QttinxqteN0m2xqnr5oyMInb2/Gu0+paVXDtuqb0Qc9dvnhDwOJjyaei1J8aIjHXkM8Pp3TVTbYYmL8UhpVPZO+qTnb8iY7Aa7edB5kn8dr5OfzsQmNeOIrN+S3x329JRGJj6/aOETLycvRI8zSh2b7lWptiEzgO24NXZtkv5xa8INmfPEFAP8s8k/i44u2DdUyDJVIX8IWma+g5TQ0/gyos8WRZ5UMvPV8PKhfUt0w1is38DR/jL0F8to9rq+zOMwmoKkKY2nl0Eu7QVjbAPh8ixV+3eupwnvlij/1aSfwVtnzkDfmsKCv+imcEXeMUNzr6jCm6goKVsl7otqV4+pmT65xC8YrFxlj6wJZr/3MLyqvzMMXYLX2M7fO8yAuK1A4cuNzUys+l9Ygss0xge+wHMffXiGtGT3UcQI7ryjyLVyO41vl68AI/vzOebwvZuGuL8Z/HGvFd6s34xXB7en+Vmwx2Qz5rpzHq0rbog2VfnNtmPgt6joeQ4FRfDgdPA92z4wZnxpS0c/8KOrEnrTv8enAk1jPnoeJr6yO67I3Y1Tw1/YZv9EUjw+5zQRsK9SAy0M5SFjAfHKw8hILTGezrZKcL59ia3Gm8yAVn3ysa2GCoWgwGxJcoyz4CnUGsaF4EdlTByuBWmwsB5risZc1GPdAbMIbRaVCA7JyNuEnPVXYqxQbZVnCQ/RDUzzeExqdewDL2BPuvgDxwvM9PjU8xT+AnOiV460qWAudsmxvjjnhieKWWhW30+F2uDAVA6IAsV0xjHG43lQi7IrBb8fzM5vtdVIWxQCWAcwujBWLV7bOw9fHTmDfHYAFhHemrcabV0RxicW7LwNH3zmBz7n6RmJ3fhZeyV+OwfqrQhq7EIlnt27G/+hvxatNFoAFs9NexO6rrZxdb1B5fc+851GQxp69VE4kuGex6AT6OxTPYhFw0hAviAj/PK9vOYHborDMex7rF3yMvdWx3B+29Ylfoa4a2Fj2JJLSwP1hs3vGuWdxGG/AsQCZ704Dy2K5mS8H8uN1dZ3dGJzDrqJN0M9jf02EvxS2tU87gdU64IbU2CxDKT5sMgO6Z5GkyM96F9Jfio4R/KC4Jh7OT1zjdCn1pA3PY/7EV+hQ/LUZLa9B30QklqbkiyZm+L0faasicaNJWZ9SdPRY4KrsGYw6uKxDdVocYP5S3scLQG1BO64jDklFwi1LoxCOm+iX6tSJfjMQviDeyqZugaf7W1jdLpxY8PUxWSA+N13GEGLxP6XZqBHstBIZCz4btOnNCJasejpXhjGESPzEdobNkQuqp5nxqSgiAG7ftfW3FB8qrgP16B+wzWNBX6PYi7eg74goXIKz3DNuk96xGefNwOKnXcymRkZB7I9ZVZst5p+ZicwdM+/TZnWfi5Mg7fmwGn+PUZfDGgvGrjsi8xhi0gC4vFe8rx5nsgG0lKPANMwnTnwFZbeXS7zLFlu3/5nPdXHt052lLDYOY4/R5uocTM5M3RXqYlPUz/47eyzNwPVxTCGJFyNOgFKRpAOmeqzv4/6SRtsYUel0YTQbfvL/INlUvTiUkszb/lsFcGdMmTiCne+ckLJr7cB2uMT553FbR0JfNgw9t2SuooauuqKW8Vn2VBXlzHAYxOIzQ82dXp5JtGxvZAJUjzNcMt89Lmg5YS9AtrcBuHfX1VNgf4Pz8bp93rlIsd5OB1hqPAiTIIZWsR6h8O5bo9iVzP8lVbsbLwoJG4a9Emcd4+GGZp7vKTAXyLyyyYbY63XWIQM+VuSpOQexJBcmuJ7q2IijiI+Lu7y/FJzDriNf4wZ0YGNkhztLdXTh+kQk9EXK6/vxhlGHez0fCzEVb6Dad4/7v2FDORYnku3FVBVz8ajzzuJEclbhqBTfsu6ysdNqSGiXjUtg6x23cZvt1bg7qpMMmdE5MInwVWx3UikRhXUZWDrRj5PCMKtwQxLCze3y9juGEputlIV7ub29ErDCYz/ksm2P3jSuxhLLZXziLCi8cDm2JclBedv7Z3/O1q1mfBtRybZ/9sVP2glsVEw0uFWkw2fc1Z15WMFmJi87GVaJGziq+DZ0kPZ82Et7Zi7oLA2HGHdptsvBcIn1RGxnqVy1FXfNfqaLDUs+lYLYAI6kYi86scdqyGT9V42bvZBmPpjhTdjDZto4W3ycp78gHmCzd6ZhrFf45ZHP3PbJSQiX7k9CuSkJ5ZD3az9XXgmwjQXLDoLf4QLARD+qso/ze38JMaAkUwZMpgzJEndgkw+mCpzNaUPO2kqk1Hsx3X6HbUwYywWKPxFLunker9aPiGdgMaBXk1bjlbc34xUudQR/7hjBK8lSFpUPujEytgv6SGFNaZOTf6yzKHW0/AxumDYp2tqMT5vMWK/4gzCzecfPOLvPYQ+a25J6EKeczUyyvdOyE5AQmYg1BqDb6ezkzJ6JOTS1jCpbz2doaEj0jX5rkgD7RKMQyXfbYShQ7gfmeMYL7A3nEj1GWzJR7OzB1mQ9XTgl1Am9B7ChUu0BpYty5+wS6y3nIGaG+uQdakPOkmn0qbSLSHAOu+askciwUwJFy8C2creNC7Hez4aWQSRk+3CY4tRJdS5wb21jGgPng0F42DAyBwlDp1wLqfDCKIbOqrZ9UZAOu9R5yMiKIwJmlB3px+ky22EXG7qVWE3RS3fXF+PAokbsYlvfzMEwRSpnrg/EF+0wOMt9yObaUQ/s5+dCjz4ccDGFzvd4gOneA8hUsadHwy4P2omyEgEioB4BGnapx5IsEQEi4AEBEh8PYFFWIkAE1COgKfGhmS71GpYsEQGtE9CU+GgdFvlHBIiAegRIfNRjSZaIABHwgACJjwewKCsRIALqESDxUY8lWSICRMADApp7yVB8oQnB9CKXBw1CWYlAqBDQXM+nYUcmMjMPoM+SgBw/bOcRKg1P9SQC/iagOfHhgXSj4twgEM0v6ehvSFQ+ESAC6hPQqPioX1GySASIgLYIkPhoqz3IGyIQMgS0Kz5sFTxh4aKQaQ2qKBEIIQLaFR+2DkzmYaCALVlZg7wQahSqKhEIBQKam2qXoHOrxSVi4GAmMlVYslGySwdEgAhogoB2ez5st0vLALpIeDTxoJATREBtAtoVH7VrSvaIABHQFAESH001BzlDBEKHAIlP6LQ11ZQIaIqARsUnBZVrEwAf7p6oqVYhZ4hACBDQ3GyX9GGpxfWK+iHQNlRFIhDUBDS1e0VQk6bKEQEiYEVAo8MuKx/phAgQgSAkQOIThI1KVSICgUCAxCcQWol8JAJBSIDEJwgblapEBAKBAIlPILQS+UgEgpAAiU8QNipViQgEAgESn0BoJfKRCAQhARIfDTTq2qoKmEzFKNSAL+QCEfAVgSAWn9dRXfgBqpf5CiWVQwSIgCcEglh8PMFAeYkAEfA1ARIfXxOn8ogAEeAIaOzDUjZUWgd89iu0/rQWO578Md9M353B660fKZqMzxcvpdzEX2p34xg7X/A2/i13BYQ7gZc+wEcvCRknL+PQ8XfwJVahdMtv8PSE0i6f9sTNP+Kfv+jhbtia9QF+iTN4vXeRwqairGX7ONt/ab6HNYoyhz/7FcquSc65dzAxjutFxTAZ40Rn0VtdibIO+XYWGypfFSEnmNthKOiUzgvrDmIj2mFoXIjTZUkI567cxElDDWqlXHRABLRBQJM9n/iXPsCO+Z/h9dpf4fXmy7j/83WK2A0vPI99+0f+eu2vcOjbBfhl4T5sZUzvvoN/ZvfVnsEwACYEnB2WxgmPh+B/vg4f5c5HF2fzj/hmMg6/zHpdYSQOv5SuM1/uI/4lwRdFrhkP5yWh3AicNJTAYCjBSXMEkou2YK14Y1Exfovj3DV23VDdjyldBk5X6cQc/G9dBkxlUWjj7NSidyIOG+tSrfPQGRHQAAFNig+UPZ27X+Gvk8BjP13F4frHF15C/ORl/G+hd8ISv/ziMwwjDsvnJLis6OmgB1/cvA/MW4R/lBrvPr5pFnpdzJe/35WueHZg3UOpbezH1DwdUtMEK0dq8HK5WTbZ0YurE/KpfKS0Y0bnwCSwYKEsYnJGOiICfiWgsWEXz+L+PdZnEX96sP84PwwSUxCxAjsKP8AOKYE/UN5lc8n708l7uKG4+8svCvHlF4qEOT2MQNRSANzQKxVHTRlgp8qfKeUJO2bDN0XaufJKnFOc0yER0AoBTYrPjHCk2M2MOQM8wyTGOSXRobolA0utYjwsrRDLA7yG5H7oEtDmsMtFe3z5n9dxP2IF/tcL/DDMedZh3JsE4hOU8Rkxdw/+xoYs0vBJCEArYrliTv/81qG6KAnh5i+tAs5KX9ZWbUHyPGUKHROBwCIQeD0fFlBuZjNav8FHT/5GQVsZm2HJPdj/f57Hv+Wuw0dsBo39KHpMx1rPYHnhOmn4dv/bP+Iv83+DNXxOn/7/3N/GUY44bDSx2Sr+Z6qnFgYpxmNGWcdNmIwZMJky+Azmdpw0ZyDTp55SYURAPQK0jKp6LMkSESACHhAIuGGXB3WjrESACGiYAImPhhuHXCMCwUyAxCeYW5fqRgQ0TIDER8ONQ64RgWAmQOITzK1LdSMCGiagymyXhutHrhEBIqBRAtTz0WjDkFtEINgJkPgEewtT/YiARgmQ+Gi0YcgtIhDsBEh8gr2FqX5EQKME1Pu2y1CJxhI9wgBM9x7AhspujVaZ3CICREALBNSf7cqvQVt2DPoObkCFSQtVJB+IABHQIgH1h131zeizhCEqQYvVJZ+IABHQCgH1xUcrNSM/iAAR0DQBEh9NNw85RwSCl8AciE83RsaAhBV5wUuNakYEiMCsCcyB+AANOzKReXkF2tra0FiRMmsnyQARIALBR0C9qXYFm7xDbcjBKWRmFitS6ZAIEAEiIBOYg55PCmKjgcHLDXIpdEQEiAARsCEwB+JjUwKdEgEiQAQcECDxcQCFkogAEZh7AhM8FGoAAAn3SURBVCQ+c8+YSiACRMABAfXFJz8X+shpjA86KI2SiAARIAICAfVmuxQflg62ZNJ3XfSIEQEi4JKA+h+WuiyOLhIBIkAEeALqD7uILBEgAkTADQIkPm5AoixEgAioT4DER32mZJEIEAE3CJD4uAGJshABIqA+ARIf9ZmSRSJABNwgQOLjBiTKQgSIgPoESHzUZ0oWiQARcIMAiY8bkCgLESAC6hMg8VGfKVkkAkTADQIkPm5AoixEgAioT4DER32mZJEIEAE3CJD4uAGJshABIqA+ARIf9ZmSRSJABNwgQOLjBiTKQgSIgPoESHzUZ0oWiQARcIMAiY8bkCgLESAC6hMg8VGfKVkkAkTADQIkPm5AoixEgAioT4DER32mZJEIEAE3CJD4uAGJshABIqA+ARIf9ZmSRSJABNwgQOLjBiTKQgSIgPoESHzUZ0oWiQARcIMAiY8bkCgLESAC6hMg8VGfKVkkAkTADQIkPm5AoixEgAioT4DER32mZJEIEAE3CJD4uAGJshABIqA+ARIf9ZkGkMU81LQ1otJg7XJKRSPaDuVZJ9IZEVCZwD+obE975oqKYTLGyX6Z22Eo6JTPtXbkM39TUPmnHCQMnUKxyRpCd+VZ5LbloLHCjA2V3dYX6YwIqETgR48//vh/qWRLe2bStuB0WRJuN5Vg2xHtuWfnkQ/9zTvUhpzoPhx4rQIO5cVQicYSPUZbMlFcb+cpJRCBWRMI6mHX2hQdwif6cTIQhAeAz/w1VCJ9CTB4zonwsMfKVIGzQ0DC2kqkzPoxIwNEwJ5AUIuPfXUphRHIy9EjzNKH5hl6NA2n+jAdqUduPnEjAuoTUCfm88xhPJeVgNHWDAxfkp18JKMJSSvvYGDvdliE5Mit7UhcIueZvLgfV9u7hIR8xO/JBVozcPsxdm84nz7UjAvHZviXIplMxVFTBpZK50koNyWhnDufRG91Jco6dKhuKcTygVq0LSjERp2QeaIfVdnHcU661xcH7vjL+1FYd1D2lSXZxa/4eiXPk/2e6qnFy+VmOQEpiI0Gpq91OR5uKXLC1IWBAj0SF7G+j8PBmTI3HRMBjwioIz6XmnDjhVIsTszH8CVRJNZg/hPhmLx4WBIeJkZRAxm4cEzwkROtUsR/32UlWjFZ7YhhgrO3Hli0D8vzchH/TL1VHue17MQ2Ax9QXltVgfJEs1NBCV9ViMyeWhgK2D9OXgR+W9WLc1b/WJ2XxGaFdiWHOcww6HasxD1/OeFZ0I8qgyiOvL+mOggBdEF47rbDkC0E1LkYUiFOVykFSIeoSGD0ljti0o2RsV3QL2Dq7E5+hygokQg4JKCO+KALd74wYnHW04gEeLFZZED0/CmMXRF7NcDDdiOGlW5c+gajWQnKFP5Y2dO5ZcLYPT2iH1sDQLZlf5MXKeZ2Ra9gGOMTwM88MNNducE3/yTTtiBTB1xvEoWHOdmJbU3LYDIuQyE6UVu0DsnzJtF7RDGT13Ec/5qiQ3liMtbCzPfoDLGIATDqQT0RHcvFfUh+PIFGeWcioJL4AOCEJBexGWu4YVSkQY+IoWZcvaVwgevF6BGhSGKHtv8QJseUw4Qu3HmvC3ds7gm900mMX3dU6yjEpYnp47jZIR4rfs+L4oah3HDSNILREr3iohuHYyO+EVk3XKEswUNAPfFBPW5fTEfSEwY80q5D1BJgtFUcgjFg+YjP0wMX9+OCbYwnQHmqM+yabeUFwZGDXPYGJ8Yh65YZ4xa4GccR40PKPwb25imFCHhDQEXxYcOqsxhdmY75GVGIudeHfkXw2ZFzkVtzPR8CODLkpzSfDbs6enG1KAnJRVuwtkMceqXiqDEOLKBcy+p/5BquGzOwsS4VteJLlGlb8NtVETbDNSGOs2wNUtDtukdjWIPEyGkMnKcBl58esaAuVlXxAeoxPpSLxJXhGG3djodW6ISe0cpSPLeylLsyebEZN6Jy8ahVPjqxJ2BGWXYtN0Mnz9yBEx55JosFrsHN9JlMGZKJ6w5esGRT6Okl/BR6t7JzKt3FH6SsTkSYZQBdNm9A22SjUyLgFYHgfsPZKyShcRO94Rwa7azlWtJLhlpunTn0rWHHAfRBj10OPyDNQw0LSvceoE8r5rANQt00iU/IPgHdqHjtFAaXpDv4qj2d++CUPioN2YfDJxWnYZdPMFMhRIAI2BKgno8tETonAkTAJwRIfHyCmQohAkTAloAqU+0//vGPbe16df7rX//aq/vEm574Bf+m3e/L+M9IxXT6TQSIgPYIqCI+alar4USD1+YOVO73+l66kQgQAd8SUFV87t+/P2vvHzx4MGsbavgxayfIABEgAi4JUMzHJR66SASIwFwR0Lj4FOBwSzP22a7j+eZhnP33fWCLbNAPESACgUlA1WGXiMB2xT1H3xeJeZ3/XoN9/54L3Y1mpNt+1/h+Ey6m/A6/e7cAXTvrnJugK0SACGiWgOriw1YP3Ki7iZOGGv5ray+rXvDu77ASF/EHh+LShd3/tBSHW3LR/PvryP0XlRcZ89Jnuo0IEAH3Cag87NIhNTECUz1nZiU8SNmH9MWAuXu3i7UL69DUN4VwvREF7teXchIBIqARAiqLjzq1Knh5JcItF9H0vmt7Xf9yFmbokP57iv64JkVXiYD2CKgz7MrLR+ursXLtVhXCJK4BI+0IwS94jqZajKcVQtphwW4HhjWI/Skw9Z8mF70esag6XL6RC100e7mQhl4iFfpNBAKBgDri01CPrAbg/v1F0pY08iJX1hiWGgvBAtAGtpEft7tCBo4WdSp2FF3K765w2z0xuT42Bfwilma+rDHTGRHQPAGfD7vYsp/S1sUdd3DbFlEKv7uCbbLL80h+gXSXeegiESACmiLgc/GZsfbdI3a7Wcx4j0W5QPqMuSkDESACGiCgPfHBdW53hZifuRdEXhodDvx9hCI+GniYyAUi4AkBDYpPF0b+DoT/wuBGHKcAK9iU/P+lFw09aXTKSwS0QECD4gPUnb6IqciVML45A6I3V0AHMy7PMCU/gxW6TASIgB8IqDPbJTnOtngpkc6sD+Q9yeV0R2lsW/DdOPvyWeSm7MOa9529aFiAwy/rMNX3B1C/RyZKR0QgUAhosufD4NXt/AMuYiX3/ZY9TPm7L/q0wp4OpRCBQCCgWfFhLw3u/qdmmBenO/iq3ejiu69AwE4+EgEioPKwS22gddie7WBQ9f52pFOcR23YZI8I+JSAquKjxlrOjz46+82T1fDDp61AhRGBECSgqviowS9vc54aZsgGESACGidAmwZqvIHIPSIQrAQ0HHAOVuRULyJABBgBEh96DogAEfALARIfv2CnQokAESDxoWeACBABvxAg8fELdiqUCBABEh96BogAEfALARIfv2CnQokAESDxoWeACBABvxD4/6M1MAya/yoGAAAAAElFTkSuQmCC;" vertex="1" parent="1">
                    <mxGeometry x="-250" y="231" width="287" height="229" as="geometry"/>
                </mxCell>
                <mxCell id="8" value="VO:GO" style="rounded=0;whiteSpace=wrap;html=1;" vertex="1" parent="1">
                    <mxGeometry x="120" y="460" width="120" height="60" as="geometry"/>
                </mxCell>
                <mxCell id="9" value="" style="rounded=0;whiteSpace=wrap;html=1;" vertex="1" parent="1">
                    <mxGeometry x="360" y="180" width="146" height="159" as="geometry"/>
                </mxCell>
                <mxCell id="10" value="&lt;font style=&quot;font-size: 14px&quot;&gt;winfow&lt;br&gt;foo:0xa00&lt;br&gt;&lt;/font&gt;&lt;div&gt;&lt;span&gt;&lt;font size=&quot;3&quot;&gt;fn:indefined&lt;/font&gt;&lt;/span&gt;&lt;/div&gt;&lt;div&gt;&lt;span&gt;&lt;font size=&quot;3&quot;&gt;-&amp;gt;fn:oxboo&amp;nbsp;&amp;nbsp;&lt;/font&gt;&lt;/span&gt;&lt;/div&gt;" style="text;html=1;strokeColor=none;fillColor=none;align=left;verticalAlign=middle;whiteSpace=wrap;rounded=0;" vertex="1" parent="1">
                    <mxGeometry x="375" y="190" width="111" height="120" as="geometry"/>
                </mxCell>
                <mxCell id="11" value="var fn=foo()" style="rounded=0;whiteSpace=wrap;html=1;" vertex="1" parent="1">
                    <mxGeometry x="120" y="520" width="120" height="60" as="geometry"/>
                </mxCell>
                <mxCell id="12" value="foo函数对象" style="rounded=0;whiteSpace=wrap;html=1;" vertex="1" parent="1">
                    <mxGeometry x="359" y="390" width="137" height="90" as="geometry"/>
                </mxCell>
                <mxCell id="15" value="" style="rounded=0;whiteSpace=wrap;html=1;" vertex="1" parent="1">
                    <mxGeometry x="80" y="280.5" width="200" height="130" as="geometry"/>
                </mxCell>
                <mxCell id="16" value="VO:GO" style="rounded=0;whiteSpace=wrap;html=1;" vertex="1" parent="1">
                    <mxGeometry x="120" y="285.5" width="120" height="60" as="geometry"/>
                </mxCell>
                <mxCell id="17" value="var fn=foo()&lt;br&gt;该段代码执行完这块执行上下文弹出栈" style="rounded=0;whiteSpace=wrap;html=1;" vertex="1" parent="1">
                    <mxGeometry x="120" y="345.5" width="120" height="60" as="geometry"/>
                </mxCell>
                <mxCell id="18" value="foo执行上下文" style="text;html=1;strokeColor=none;fillColor=none;align=center;verticalAlign=middle;whiteSpace=wrap;rounded=0;" vertex="1" parent="1">
                    <mxGeometry x="140" y="240.5" width="80" height="20" as="geometry"/>
                </mxCell>
                <mxCell id="19" value="&lt;font style=&quot;font-size: 14px&quot;&gt;nameL'foo'&lt;br&gt;bar:0xb00&lt;/font&gt;" style="rounded=0;whiteSpace=wrap;html=1;align=center;" vertex="1" parent="1">
                    <mxGeometry x="522" y="180" width="118" height="159" as="geometry"/>
                </mxCell>
                <mxCell id="20" value="AO对象（foo）" style="text;html=1;strokeColor=none;fillColor=none;align=center;verticalAlign=middle;whiteSpace=wrap;rounded=0;" vertex="1" parent="1">
                    <mxGeometry x="535" y="150" width="100" height="20" as="geometry"/>
                </mxCell>
                <mxCell id="35" style="edgeStyle=orthogonalEdgeStyle;rounded=0;orthogonalLoop=1;jettySize=auto;html=1;entryX=0.576;entryY=1;entryDx=0;entryDy=0;entryPerimeter=0;" edge="1" parent="1" source="21" target="19">
                    <mxGeometry relative="1" as="geometry"/>
                </mxCell>
                <mxCell id="21" value="&lt;font style=&quot;font-size: 14px&quot;&gt;bar函数对象:&lt;br&gt;代码执行体；&lt;br&gt;父级作用域：foo的AO&lt;/font&gt;" style="rounded=0;whiteSpace=wrap;html=1;" vertex="1" parent="1">
                    <mxGeometry x="516" y="390" width="150" height="90" as="geometry"/>
                </mxCell>
                <mxCell id="24" value="" style="rounded=0;whiteSpace=wrap;html=1;" vertex="1" parent="1">
                    <mxGeometry x="80" y="90" width="200" height="130" as="geometry"/>
                </mxCell>
                <mxCell id="25" value="bar执行上下文" style="text;html=1;strokeColor=none;fillColor=none;align=center;verticalAlign=middle;whiteSpace=wrap;rounded=0;" vertex="1" parent="1">
                    <mxGeometry x="130" y="60" width="100" height="20" as="geometry"/>
                </mxCell>
                <mxCell id="26" value="VO:GO&lt;br&gt;scope chain: VO+parentScope" style="rounded=0;whiteSpace=wrap;html=1;" vertex="1" parent="1">
                    <mxGeometry x="110" y="95" width="140" height="60" as="geometry"/>
                </mxCell>
                <mxCell id="27" value="concole.log('bar',name)" style="rounded=0;whiteSpace=wrap;html=1;" vertex="1" parent="1">
                    <mxGeometry x="110" y="155" width="140" height="60" as="geometry"/>
                </mxCell>
                <mxCell id="28" value="" style="rounded=0;whiteSpace=wrap;html=1;align=center;" vertex="1" parent="1">
                    <mxGeometry x="666" y="180" width="114" height="159" as="geometry"/>
                </mxCell>
                <mxCell id="29" value="AO对象（bar）" style="text;html=1;strokeColor=none;fillColor=none;align=center;verticalAlign=middle;whiteSpace=wrap;rounded=0;" vertex="1" parent="1">
                    <mxGeometry x="673" y="150" width="100" height="20" as="geometry"/>
                </mxCell>
                <mxCell id="33" value="&lt;font style=&quot;font-size: 18px&quot;&gt;foo()执行完，里面定义的东西本该全部销毁掉，但在闭包中没有将AO(bar)销毁，可以进行访问。&lt;br&gt;闭包就是内部函数+访问的了上层作用域自由变量，严格意义上一个函数访问了上层作用域的变量，就是一个闭包&lt;/font&gt;" style="text;html=1;strokeColor=none;fillColor=none;align=center;verticalAlign=middle;whiteSpace=wrap;rounded=0;" vertex="1" parent="1">
                    <mxGeometry x="374" width="446" height="120" as="geometry"/>
                </mxCell>
                <mxCell id="41" value="" style="rounded=0;comic=1;strokeWidth=2;endArrow=blockThin;html=1;fontFamily=Comic Sans MS;fontStyle=1;entryX=0.153;entryY=0.011;entryDx=0;entryDy=0;entryPerimeter=0;" edge="1" parent="1" source="10" target="21">
                    <mxGeometry width="50" height="50" relative="1" as="geometry">
                        <mxPoint x="414" y="330" as="sourcePoint"/>
                        <mxPoint x="474" y="300" as="targetPoint"/>
                        <Array as="points">
                            <mxPoint x="460" y="280"/>
                        </Array>
                    </mxGeometry>
                </mxCell>
                <mxCell id="42" value="&lt;font style=&quot;font-size: 18px&quot;&gt;fn对bar函数对象有指向引用，bar函数对象的父级作用域对foo的AO对象有指向引用，因此其没被销毁，解决闭包内存泄漏问题fn=null&lt;/font&gt;" style="text;html=1;strokeColor=none;fillColor=none;align=center;verticalAlign=middle;whiteSpace=wrap;rounded=0;" vertex="1" parent="1">
                    <mxGeometry x="350" y="550" width="370" height="90" as="geometry"/>
                </mxCell>
            </root>
        </mxGraphModel>
    </diagram>
</mxfile>